<svg width="27" height="27" viewBox="0 0 27 27" fill="none" xmlns="http://www.w3.org/2000/svg">
<path d="M2.7 24.5C1.9575 24.5 1.3221 24.231 0.7938 23.6929C0.2655 23.1548 0.0009 22.5072 0 21.75V5.25C0 4.49375 0.2646 3.84658 0.7938 3.3085C1.323 2.77042 1.9584 2.50092 2.7 2.5H24.3C25.0425 2.5 25.6783 2.7695 26.2075 3.3085C26.7367 3.8475 27.0009 4.49467 27 5.25V21.75C27 22.5062 26.7358 23.1539 26.2075 23.6929C25.6792 24.2319 25.0434 24.5009 24.3 24.5H2.7ZM13.5 14.6344C13.6125 14.6344 13.7308 14.617 13.855 14.5821C13.9792 14.5473 14.0971 14.496 14.2087 14.4281L23.76 8.34375C23.94 8.22917 24.075 8.08617 24.165 7.91475C24.255 7.74333 24.3 7.55404 24.3 7.34687C24.3 6.88854 24.1087 6.54479 23.7262 6.31562C23.3437 6.08646 22.95 6.09792 22.545 6.35L13.5 12.125L4.455 6.35C4.05 6.09792 3.65625 6.09242 3.27375 6.3335C2.89125 6.57458 2.7 6.91237 2.7 7.34687C2.7 7.57604 2.745 7.77679 2.835 7.94912C2.925 8.12146 3.06 8.253 3.24 8.34375L12.7912 14.4281C12.9037 14.4969 13.0221 14.5487 13.1463 14.5835C13.2705 14.6183 13.3884 14.6353 13.5 14.6344Z" fill="#E0E4DB"/>
</svg>
