<svg width="40" height="40" viewBox="0 0 40 40" fill="none" xmlns="http://www.w3.org/2000/svg">
<path d="M2.9981 12.277C2.9981 12.6945 2.9981 13.074 2.9981 13.4535C2.9981 13.833 2.9981 14.2125 2.9981 14.5541C2.9981 14.8956 2.9981 15.2372 2.9981 15.5787C2.9981 15.9203 2.9981 16.2239 2.9981 16.5275C2.9981 16.8311 2.9981 17.1727 2.9981 17.4763C2.9981 17.7799 2.9981 18.0835 2.9981 18.425C2.9981 18.7666 2.9981 19.0702 2.9981 19.3738C2.9981 19.7154 2.9981 20.0569 2.9981 20.3985C2.9981 20.74 2.9981 21.1195 2.9981 21.4991C2.9981 21.8786 2.9981 22.2581 2.9981 22.6755C2.9981 23.093 3.074 23.4345 3.22581 23.6243C3.37761 23.852 3.60531 23.9658 3.90892 23.9279C4.21252 23.9279 4.44023 23.814 4.59203 23.5863C4.74383 23.3586 4.81973 23.055 4.81973 22.6376C4.81973 22.2201 4.81973 21.8406 4.81973 21.4611C4.81973 21.0816 4.81973 20.74 4.81973 20.3985C4.81973 20.0569 4.81973 19.7154 4.81973 19.3738C4.81973 19.0323 4.81973 18.7287 4.81973 18.425C4.81973 18.1214 4.81973 17.8178 4.81973 17.4763C4.81973 17.1727 4.81973 16.8691 4.81973 16.5275C4.81973 16.2239 4.81973 15.8823 4.81973 15.5787C4.81973 15.2372 4.81973 14.9336 4.81973 14.5541C4.81973 14.2125 4.81973 13.833 4.81973 13.4915C4.81973 13.112 4.81973 12.7324 4.81973 12.315C5.19924 12.315 5.5408 12.3529 5.8444 12.3529C6.14801 12.3529 6.45161 12.3909 6.75522 12.3909C7.05882 12.3909 7.40038 12.4288 7.77989 12.4288C7.77989 12.8463 7.77989 13.2258 7.77989 13.6053C7.77989 13.9848 7.77989 14.3264 7.77989 14.6679C7.77989 15.0095 7.77989 15.351 7.77989 15.6546C7.77989 15.9962 7.77989 16.2998 7.77989 16.6034C7.77989 16.907 7.77989 17.2106 7.77989 17.5142C7.77989 17.8178 7.77989 18.1214 7.77989 18.425C7.77989 18.7287 7.77989 19.0323 7.77989 19.3738C7.77989 19.7154 7.77989 20.019 7.77989 20.3605C7.77989 20.7021 7.77989 21.0436 7.77989 21.4231C7.77989 21.8027 7.77989 22.1822 7.77989 22.5996C7.77989 23.0171 7.74194 23.3586 7.66603 23.7381C7.59013 24.0797 7.47628 24.4212 7.32448 24.6869C7.17268 24.9905 6.98292 25.2562 6.75522 25.4839C6.52751 25.7116 6.26186 25.9013 5.99621 26.0911C5.6926 26.2429 5.38899 26.3947 5.04744 26.4706C4.70588 26.5844 4.32638 26.6224 3.90892 26.6603C3.49146 26.6983 3.11195 26.6603 2.73245 26.5844C2.39089 26.5085 2.04934 26.4326 1.78368 26.2808C1.48008 26.129 1.25237 25.9393 1.02467 25.7495C0.796964 25.5218 0.607211 25.2562 0.455408 24.9905C0.303605 24.6869 0.189753 24.3833 0.113852 24.0038C0.0379507 23.6243 0 23.2448 0 22.8273C0 22.4099 0 21.9924 0 21.6129C0 21.2334 0 20.8539 0 20.4744C0 20.0949 0 19.7533 0 19.4118C0 19.0702 0 18.7287 0 18.425C0 18.1214 0 17.7799 0 17.4383C0 17.1347 0 16.7932 0 16.4516C0 16.1101 0 15.8064 0 15.4649C0 15.1233 0 14.7818 0 14.4023C0 14.0228 0 13.6812 0 13.2638C0 12.8842 0 12.4668 0 12.0493C0.379507 12.0493 0.721063 12.0873 1.02467 12.0873C1.32827 12.0873 1.63188 12.1252 1.93548 12.1252C2.23909 12.1252 2.58065 12.2391 2.9981 12.277ZM9.14611 12.5427C9.56357 12.5427 9.90512 12.5806 10.2467 12.5806C10.5882 12.5806 10.8918 12.6186 11.1954 12.6186C11.537 12.6186 11.8786 12.6565 12.296 12.6565C12.4099 13.0361 12.5237 13.3397 12.5996 13.6812C12.7135 13.9848 12.7894 14.2884 12.8653 14.5541C12.9412 14.8197 13.055 15.1233 13.1309 15.389C13.2068 15.6546 13.3207 15.9203 13.3966 16.2239C13.4725 16.4896 13.5863 16.7932 13.6622 17.0968C13.7761 17.4004 13.852 17.7419 13.9658 18.0835C14.0417 18.3871 14.1176 18.6907 14.2315 18.9943C14.3074 19.2979 14.4213 19.6015 14.4592 19.9051C14.4972 19.9051 14.4972 19.9051 14.4972 19.9051C14.4972 19.6015 14.4592 19.2979 14.4592 18.9943C14.4592 18.6907 14.4592 18.3871 14.4592 18.0835C14.4592 17.7799 14.4592 17.4763 14.4592 17.1727C14.4592 16.7173 14.4592 16.3378 14.4592 15.9962C14.4592 15.6546 14.4592 15.3131 14.4592 14.9715C14.4592 14.63 14.4592 14.2884 14.4592 13.9469C14.4592 13.6053 14.4592 13.1879 14.4592 12.7704C14.8008 12.7704 15.1044 12.8083 15.37 12.8083C15.6357 12.8083 15.9013 12.8463 16.167 12.8463C16.4326 12.8463 16.7362 12.8842 17.0778 12.8842C17.0778 13.3017 17.0778 13.7192 17.0778 14.1366C17.0778 14.5161 17.0778 14.9336 17.0778 15.2751C17.0778 15.6546 17.0778 15.9962 17.0778 16.3378C17.0778 16.6793 17.0778 17.0209 17.0778 17.3624C17.0778 17.704 17.0778 18.0455 17.0778 18.3491C17.0778 18.6527 17.0778 18.9943 17.0778 19.3359C17.0778 19.6774 17.0778 19.981 17.0778 20.3226C17.0778 20.6641 17.0778 20.9677 17.0778 21.3093C17.0778 21.6509 17.0778 21.9924 17.0778 22.334C17.0778 22.6755 17.0778 23.055 17.0778 23.3966C17.0778 23.7761 17.0778 24.1556 17.0778 24.5351C17.0778 24.9146 17.0778 25.3321 17.0778 25.7875C16.6983 25.7875 16.3947 25.8254 16.0911 25.8254C15.7875 25.8254 15.5218 25.8634 15.2182 25.8634C14.9146 25.8634 14.611 25.9013 14.2315 25.9013C14.1176 25.5218 13.9658 25.1423 13.852 24.8008C13.7381 24.4592 13.6243 24.1556 13.5104 23.814C13.3966 23.5104 13.3207 23.2068 13.2068 22.9032C13.093 22.5996 13.0171 22.296 12.9032 21.9924C12.7894 21.6888 12.6755 21.3472 12.5617 21.0057C12.4478 20.6641 12.334 20.2846 12.1822 19.8672C12.0683 19.5256 11.9545 19.1841 11.8786 18.8425C11.8027 18.5009 11.6888 18.1973 11.6129 17.8558C11.575 17.8558 11.575 17.8558 11.575 17.8558C11.575 18.1214 11.575 18.425 11.6129 18.7287C11.6129 19.0323 11.6129 19.2979 11.6509 19.6015C11.6509 19.9051 11.6509 20.2087 11.6509 20.5123C11.6509 20.9677 11.6509 21.3472 11.6509 21.7268C11.6509 22.1063 11.6509 22.4478 11.6509 22.7894C11.6509 23.1309 11.6509 23.4345 11.6509 23.7761C11.6509 24.1176 11.6509 24.4592 11.6509 24.8387C11.6509 25.2182 11.6509 25.5977 11.6509 26.0531C11.3852 26.0911 11.0816 26.0911 10.8159 26.0911C10.5503 26.0911 10.2846 26.129 10.019 26.129C9.75332 26.129 9.44972 26.167 9.10816 26.167C9.10816 25.7495 9.10816 25.3321 9.10816 24.9526C9.10816 24.5731 9.10816 24.1935 9.10816 23.814C9.10816 23.4345 9.10816 23.093 9.10816 22.7514C9.10816 22.4099 9.10816 22.0683 9.10816 21.7268C9.10816 21.3852 9.10816 21.0816 9.10816 20.74C9.10816 20.4364 9.10816 20.0949 9.10816 19.7913C9.10816 19.4877 9.10816 19.1461 9.10816 18.8425C9.10816 18.5389 9.10816 18.1973 9.10816 17.8937C9.10816 17.5901 9.10816 17.2486 9.10816 16.907C9.10816 16.5655 9.10816 16.2239 9.10816 15.8824C9.10816 15.5408 9.10816 15.1992 9.10816 14.8197C9.10816 14.4402 9.10816 14.0607 9.10816 13.6812C9.14611 13.3776 9.14611 12.9601 9.14611 12.5427ZM18.5579 25.7495C18.5579 25.3321 18.5579 24.9146 18.5579 24.5351C18.5579 24.1556 18.5579 23.7761 18.5579 23.3966C18.5579 23.0171 18.5579 22.6755 18.5579 22.334C18.5579 21.9924 18.5579 21.6509 18.5579 21.3093C18.5579 20.9677 18.5579 20.6641 18.5579 20.3226C18.5579 19.981 18.5579 19.6774 18.5579 19.3738C18.5579 19.0702 18.5579 18.7287 18.5579 18.425C18.5579 18.0835 18.5579 17.7799 18.5579 17.4383C18.5579 17.0968 18.5579 16.7552 18.5579 16.4137C18.5579 16.0721 18.5579 15.6926 18.5579 15.351C18.5579 14.9715 18.5579 14.592 18.5579 14.2125C18.5579 13.833 18.5579 13.4156 18.5579 12.9981C18.9374 12.9981 19.2789 13.0361 19.5825 13.0361C19.8861 13.0361 20.1898 13.074 20.4934 13.074C20.797 13.074 21.1385 13.112 21.518 13.112C21.518 13.5294 21.518 13.9469 21.518 14.3264C21.518 14.7059 21.518 15.0854 21.518 15.4269C21.518 15.7685 21.518 16.148 21.518 16.4896C21.518 16.8311 21.518 17.1727 21.518 17.4763C21.518 17.8178 21.518 18.1214 21.518 18.425C21.518 18.7287 21.518 19.0702 21.518 19.3738C21.518 19.6774 21.518 20.019 21.518 20.3226C21.518 20.6262 21.518 20.9677 21.518 21.2713C21.518 21.6129 21.518 21.9165 21.518 22.2581C21.518 22.5996 21.518 22.9412 21.518 23.3207C21.518 23.6622 21.518 24.0417 21.518 24.4212C21.518 24.8008 21.518 25.2182 21.518 25.6357C21.1385 25.6357 20.797 25.6736 20.4934 25.6736C20.1898 25.6736 19.8861 25.7116 19.5825 25.7116C19.2789 25.7116 18.9374 25.7495 18.5579 25.7495ZM22.6186 21.7647C22.6186 21.3852 22.6186 21.0436 22.6186 20.7021C22.6186 20.3605 22.6186 20.0569 22.6186 19.7913C22.6186 19.4877 22.6186 19.222 22.6186 18.9184C22.6186 18.6148 22.6186 18.3112 22.6186 18.0076C22.6186 17.666 22.6186 17.3245 22.6186 16.945C22.6186 16.4896 22.6565 16.1101 22.7324 15.7305C22.8083 15.351 22.9602 15.0095 23.112 14.7438C23.2638 14.4402 23.4915 14.1746 23.7192 13.9848C23.9469 13.7571 24.2125 13.5674 24.5541 13.4535C24.8577 13.3017 25.1992 13.2258 25.5787 13.1499C25.9583 13.074 26.3378 13.074 26.7932 13.074C27.2106 13.112 27.6281 13.1499 28.0076 13.2638C28.3871 13.3397 28.7287 13.4915 29.0323 13.6433C29.3359 13.7951 29.6015 14.0228 29.8672 14.2505C30.1328 14.4782 30.3226 14.7438 30.4744 15.0474C30.6262 15.351 30.778 15.6546 30.8539 16.0342C30.9298 16.3757 30.9677 16.7552 30.9677 17.1727C30.9677 17.5522 30.9677 17.8558 30.9677 18.1594C30.9677 18.463 30.9677 18.7666 30.9677 19.0323C30.9677 19.2979 30.9677 19.5636 30.9677 19.8672C30.9677 20.1708 30.9677 20.4364 30.9677 20.74C30.9677 21.0436 30.9677 21.3852 30.9677 21.7268C30.9677 22.1442 30.9298 22.5237 30.8539 22.8653C30.778 23.2068 30.6262 23.5484 30.4744 23.852C30.3226 24.1556 30.0949 24.4212 29.8672 24.649C29.6395 24.8767 29.3738 25.0664 29.0323 25.2562C28.7287 25.408 28.3871 25.5598 28.0076 25.6357C27.6281 25.7116 27.2486 25.7875 26.7932 25.8254C26.3757 25.8634 25.9583 25.8254 25.5787 25.7495C25.1992 25.6736 24.8577 25.5977 24.5541 25.4459C24.2505 25.2941 23.9848 25.1044 23.7192 24.9146C23.4915 24.6869 23.2638 24.4213 23.112 24.1556C22.9602 23.852 22.8083 23.5104 22.7324 23.1689C22.6565 22.6376 22.6186 22.2201 22.6186 21.7647ZM27.8178 22.0683C27.8178 21.6509 27.8178 21.2334 27.8178 20.8918C27.8178 20.5123 27.8178 20.2087 27.8178 19.8672C27.8178 19.5256 27.8178 19.222 27.8178 18.8805C27.8178 18.5389 27.8178 18.1973 27.8178 17.8558C27.8178 17.4763 27.8178 17.0968 27.8178 16.6793C27.8178 16.2239 27.704 15.8444 27.5522 15.6167C27.3624 15.389 27.0968 15.2372 26.7552 15.2372C26.4137 15.2372 26.148 15.351 25.9583 15.5787C25.7685 15.8064 25.6926 16.186 25.6926 16.6414C25.6926 17.0968 25.6926 17.4763 25.6926 17.8558C25.6926 18.2353 25.6926 18.5768 25.6926 18.9184C25.6926 19.26 25.6926 19.5636 25.6926 19.9051C25.6926 20.2467 25.6926 20.5882 25.6926 20.9677C25.6926 21.3472 25.6926 21.7268 25.6926 22.1822C25.6926 22.6376 25.8065 23.0171 25.9583 23.2448C26.148 23.4725 26.4137 23.5863 26.7552 23.5863C27.0968 23.5863 27.3624 23.4345 27.5522 23.2068C27.7419 22.8653 27.8178 22.5237 27.8178 22.0683ZM31.9924 13.5674C32.4099 13.5674 32.7514 13.6053 33.093 13.6053C33.4345 13.6053 33.7381 13.6433 34.0417 13.6433C34.3833 13.6433 34.7249 13.6812 35.1423 13.6812C35.2941 14.0607 35.408 14.4023 35.5218 14.7059C35.6357 15.0095 35.7495 15.3131 35.8634 15.5787C35.9772 15.8444 36.0531 16.148 36.167 16.4137C36.2808 16.6793 36.3947 16.9829 36.5085 17.2865C36.6224 17.5901 36.7362 17.9317 36.888 18.2732C36.9639 18.5389 37.0398 18.8046 37.1537 19.0702C37.2296 19.3359 37.3435 19.6015 37.3814 19.8292C37.4194 19.8292 37.4194 19.8292 37.4194 19.8292C37.4194 19.5636 37.3814 19.3359 37.3814 19.0702C37.3814 18.8046 37.3814 18.5768 37.3814 18.3112C37.3814 18.0455 37.3814 17.8178 37.3814 17.5522C37.3814 17.1727 37.3814 16.8311 37.3814 16.5275C37.3814 16.2239 37.3814 15.9583 37.3814 15.6546C37.3814 15.389 37.3814 15.0854 37.3814 14.7818C37.3814 14.4782 37.3814 14.1366 37.3814 13.7571C37.723 13.7571 38.0266 13.7951 38.2922 13.7951C38.5579 13.7951 38.8235 13.833 39.0892 13.833C39.3548 13.833 39.6584 13.871 40 13.871C40 14.2884 40 14.7059 40 15.1233C40 15.5028 40 15.8824 40 16.2619C40 16.6414 40 16.9829 40 17.3245C40 17.666 40 18.0076 40 18.3491C40 18.6907 40 18.9943 40 19.3359C40 19.6774 40 19.981 40 20.3226C40 20.6641 40 21.0057 40 21.3472C40 21.6888 40 22.0304 40 22.4099C40 22.7894 40 23.1689 40 23.5484C40 23.9279 40 24.3453 40 24.8008C39.6205 24.8008 39.3169 24.8387 39.0133 24.8387C38.7097 24.8387 38.444 24.8767 38.1404 24.8767C37.8368 24.8767 37.5332 24.9146 37.1537 24.9146C37.0019 24.4972 36.8501 24.1556 36.7362 23.814C36.5844 23.4725 36.4706 23.1689 36.3567 22.8653C36.2429 22.5617 36.129 22.2581 36.0152 21.9545C35.9013 21.6509 35.7875 21.3093 35.6357 20.9677C35.4839 20.6262 35.37 20.2467 35.2182 19.8292C35.1044 19.5256 34.9905 19.222 34.9146 18.9564C34.8387 18.6907 34.7249 18.3871 34.649 18.1214C34.611 18.1214 34.611 18.1214 34.611 18.1214C34.611 18.5009 34.649 18.8425 34.649 19.222C34.649 19.6015 34.6869 19.981 34.6869 20.3605C34.6869 20.74 34.6869 21.0816 34.6869 21.3852C34.6869 21.6888 34.6869 21.9924 34.6869 22.2581C34.6869 22.5237 34.6869 22.8273 34.6869 23.093C34.6869 23.3586 34.6869 23.6622 34.6869 23.9658C34.6869 24.2694 34.6869 24.611 34.6869 24.9905C34.3454 24.9905 34.0417 25.0285 33.7761 25.0285C33.5104 25.0285 33.2448 25.0664 32.9791 25.0664C32.7135 25.0664 32.4099 25.1044 32.0683 25.1044C32.0683 24.6869 32.0683 24.2694 32.0683 23.8899C32.0683 23.5104 32.0683 23.1309 32.0683 22.7894C32.0683 22.4478 32.0683 22.0683 32.0683 21.7268C32.0683 21.3852 32.0683 21.0436 32.0683 20.74C32.0683 20.3985 32.0683 20.0949 32.0683 19.7913C32.0683 19.4877 32.0683 19.1461 32.0683 18.8425C32.0683 18.5389 32.0683 18.1973 32.0683 17.8937C32.0683 17.5522 32.0683 17.2486 32.0683 16.907C32.0683 16.5655 32.0683 16.2239 32.0683 15.8444C32.0683 15.5028 32.0683 15.1233 32.0683 14.7438C31.9924 14.4023 31.9924 13.9848 31.9924 13.5674ZM19.0512 28.444V30.1138C19.0512 30.4934 19.2789 30.759 19.6584 30.759C20.0759 30.759 20.2657 30.4934 20.2657 30.1138V28.444H20.759V30.1138C20.759 30.759 20.3416 31.1765 19.6205 31.1765C18.8994 31.1765 18.482 30.759 18.482 30.1138V28.444H19.0512ZM21.1765 29.1271H21.6319V29.5066C21.7837 29.203 21.9734 29.0892 22.277 29.0892C22.6945 29.0892 22.9222 29.3548 22.9222 29.8861V31.1006H22.4288V29.9241C22.4288 29.6205 22.315 29.4687 22.0493 29.4687C21.7837 29.4687 21.5939 29.6964 21.5939 30.0759V31.1385H21.1385L21.1765 29.1271ZM23.3017 28.7856H23.7951V28.444H23.3017V28.7856ZM31.6129 28.7476H32.1063V28.4061H31.6129V28.7476ZM23.3017 31.1006H23.7571V29.1271H23.3017V31.1006ZM24.0228 29.1271H24.5161L24.8956 30.3795C24.9336 30.4934 24.9336 30.5693 24.9715 30.6831C24.9715 30.6072 25.0095 30.4934 25.0474 30.3795L25.4269 29.1271H25.9203L25.1992 31.1006H24.6679L24.0228 29.1271ZM29.2979 29.0892C29.3359 29.0892 29.3359 29.0892 29.2979 29.0892L29.3359 29.5446H29.26C29.0702 29.5446 28.9564 29.5825 28.8425 29.6964C28.6907 29.8482 28.6528 30.0759 28.6528 30.3036V31.1385H28.1973V29.1271H28.6528V29.6205C28.7666 29.2789 28.9943 29.0892 29.2979 29.0892ZM31.6129 31.1006H32.0683V29.1271H31.6129V31.1006ZM32.3719 29.1271H32.7135V28.5199L33.1689 28.4061V29.1271H33.6622L33.5863 29.4687H33.1689V30.4175C33.1689 30.6452 33.2448 30.7211 33.4725 30.7211C33.5484 30.7211 33.5863 30.7211 33.6622 30.6831V31.1006C33.5484 31.1385 33.4725 31.1385 33.3207 31.1385C32.8653 31.1385 32.6755 30.8729 32.6755 30.4934V29.4687H32.334L32.3719 29.1271ZM33.9658 31.7837V31.4042C34.0417 31.4042 34.0797 31.4042 34.1556 31.4042C34.3833 31.4042 34.4972 31.4042 34.5731 31.1765L34.611 31.0626L33.852 29.0892H34.3833L34.8008 30.3795C34.8387 30.4554 34.8387 30.5313 34.8767 30.6072C34.8767 30.5313 34.9146 30.4934 34.9526 30.3795L35.3321 29.0892H35.8254L35.0664 31.1765C34.8767 31.7078 34.611 31.7837 34.1556 31.7837C34.1176 31.7837 34.0417 31.7837 33.9658 31.7837ZM36.5465 30.1138C36.5465 29.4687 36.9639 29.0892 37.4953 29.0892C38.0266 29.0892 38.444 29.4687 38.444 30.1138C38.444 30.759 38.0266 31.1385 37.4953 31.1385C36.9639 31.1385 36.5465 30.759 36.5465 30.1138ZM37.9886 30.1138C37.9886 29.6584 37.7989 29.4307 37.4953 29.4307C37.1917 29.4307 37.0019 29.6584 37.0019 30.1138C37.0019 30.5693 37.1917 30.797 37.4953 30.797C37.7989 30.797 37.9886 30.5693 37.9886 30.1138ZM39.8482 29.4687H39.4307V31.1006H38.9753V29.4687H38.6338V29.1271H38.9753V29.0892C38.9753 28.6717 39.241 28.444 39.6584 28.444C39.7723 28.444 39.8482 28.444 39.9241 28.482V28.8615C39.8482 28.8615 39.7723 28.8235 39.7343 28.8235C39.5446 28.8235 39.4687 28.9374 39.4687 29.1271H39.9621L39.8482 29.4687ZM30.6641 29.9241L30.3226 29.8861C30.0949 29.8482 30.019 29.7723 30.019 29.6584C30.019 29.5066 30.1328 29.4307 30.3605 29.4307C30.5882 29.4307 30.74 29.5066 30.8159 29.6584L31.1954 29.5825C31.0816 29.2789 30.778 29.0892 30.3605 29.0892C29.8672 29.0892 29.5636 29.3169 29.5636 29.6964C29.5636 30 29.7533 30.2277 30.1708 30.3036L30.4744 30.3416C30.7021 30.3795 30.778 30.4175 30.778 30.6072C30.778 30.759 30.6641 30.8349 30.3985 30.8349C30.1328 30.8349 29.981 30.7211 29.8672 30.5313L29.4877 30.6072C29.6015 30.9867 29.9431 31.1765 30.3985 31.1765C30.9298 31.1765 31.1954 30.9488 31.1954 30.5693C31.2334 30.1898 31.0816 30 30.6641 29.9241ZM18.5579 32.3909H19.2789L19.9241 34.2125C19.962 34.3643 20 34.4023 20 34.5161C20 34.4023 20.038 34.3643 20.0759 34.2125L20.7211 32.3909H21.4421V35.0474H20.9867V32.9981C20.9867 32.8842 20.9867 32.7704 20.9867 32.6945C20.9867 32.7704 20.9488 32.9222 20.9108 32.9981L20.2657 35.0474H19.7343L19.0512 32.9981C19.0133 32.9222 18.9753 32.7704 18.9753 32.6945C18.9753 32.7704 18.9753 32.8842 18.9753 32.9981V35.0474H18.5199V32.3909H18.5579ZM21.7837 34.5161C21.7837 34.3264 21.8596 34.1746 22.0114 34.0607C22.1632 33.9848 22.3529 33.9089 22.6565 33.871L23.074 33.833V33.7951C23.074 33.4915 22.9602 33.3776 22.6945 33.3776C22.4668 33.3776 22.315 33.4915 22.315 33.7192H21.8216C21.8596 33.3017 22.2011 33.0361 22.6945 33.0361C23.2638 33.0361 23.5294 33.3017 23.5294 33.871V34.4402C23.5294 34.7059 23.5674 34.8956 23.6053 35.0474H23.1499C23.1499 34.9336 23.112 34.8197 23.112 34.7059C23.0361 34.9336 22.7704 35.0854 22.4668 35.0854C22.0493 35.1233 21.7837 34.8577 21.7837 34.5161ZM23.112 34.2505V34.1366L22.6565 34.2125C22.3909 34.2505 22.277 34.3643 22.277 34.5161C22.277 34.6679 22.3909 34.7818 22.6186 34.7818C22.8843 34.7818 23.112 34.5541 23.112 34.2505ZM24.0228 33.074H24.4782V33.4535C24.63 33.1499 24.8197 33.0361 25.1233 33.0361C25.5408 33.0361 25.7685 33.3017 25.7685 33.833V35.0474H25.2751V33.871C25.2751 33.5674 25.1613 33.4156 24.8956 33.4156C24.63 33.4156 24.4402 33.6433 24.4402 34.0228V35.0854H23.9848V33.074H24.0228ZM26.148 34.0607C26.148 33.4156 26.5275 33.0361 27.1347 33.0361C27.6281 33.0361 27.9317 33.3017 28.0076 33.7571L27.5522 33.833C27.5142 33.5674 27.3624 33.4156 27.1347 33.4156C26.8311 33.4156 26.6793 33.6433 26.6793 34.0607C26.6793 34.4782 26.8691 34.7438 27.1727 34.7438C27.4004 34.7438 27.5522 34.592 27.5901 34.3264L28.0455 34.4023C27.9696 34.8577 27.6281 35.1233 27.1727 35.1233C26.5275 35.1233 26.148 34.7059 26.148 34.0607ZM28.3112 32.5047L28.7666 32.3909V33.4535C28.8805 33.1879 29.1082 33.0361 29.4118 33.0361C29.8292 33.0361 30.0569 33.3017 30.0569 33.833V35.0474H29.6015V33.871C29.6015 33.5674 29.4877 33.4156 29.222 33.4156C28.9564 33.4156 28.7666 33.6433 28.7666 34.0228V35.0854H28.3112V32.5047ZM34.3833 33.074H34.7249V32.4668L35.1803 32.3529V33.0361H35.6736L35.5977 33.3776H35.1803V34.3264C35.1803 34.5541 35.2562 34.63 35.4839 34.63C35.5598 34.63 35.5977 34.63 35.6736 34.592V35.0095C35.5598 35.0474 35.4839 35.0474 35.3321 35.0474C34.8767 35.0474 34.6869 34.7818 34.6869 34.4023V33.3776H34.3454L34.3833 33.074ZM39.1651 33.0361C39.203 33.0361 39.203 33.0361 39.1651 33.0361L39.203 33.4915H39.1271C38.9374 33.4915 38.8235 33.5294 38.7097 33.6433C38.5579 33.7951 38.5199 34.0228 38.5199 34.2505V35.0854H38.0645V33.112H38.5199V33.6053C38.6338 33.2638 38.8615 33.0361 39.1651 33.0361ZM33.6243 33.9089L33.2827 33.871C33.055 33.833 32.9791 33.7571 32.9791 33.6433C32.9791 33.4915 33.093 33.4156 33.3207 33.4156C33.5484 33.4156 33.7002 33.4915 33.7761 33.6433L34.1556 33.5674C34.0417 33.2638 33.7381 33.074 33.3207 33.074C32.8273 33.074 32.5237 33.3017 32.5237 33.6812C32.5237 33.9848 32.7135 34.2125 33.1309 34.2884L33.4345 34.3264C33.6622 34.3643 33.7381 34.4023 33.7381 34.592C33.7381 34.7438 33.6243 34.8197 33.3586 34.8197C33.093 34.8197 32.9412 34.7059 32.8273 34.5161L32.4478 34.592C32.5617 34.9715 32.9032 35.1613 33.3586 35.1613C33.8899 35.1613 34.1556 34.9336 34.1556 34.5541C34.1936 34.1366 34.0417 33.9469 33.6243 33.9089ZM31.8406 34.4402C31.7268 34.63 31.575 34.7059 31.3852 34.7059C31.0816 34.7059 30.8539 34.4782 30.8539 34.1746H32.2581V33.9469C32.2581 33.3397 31.9165 32.9981 31.3472 32.9981C30.74 32.9981 30.3985 33.4156 30.3985 34.0607C30.3985 34.7059 30.778 35.0854 31.3472 35.0854C31.8027 35.0854 32.0683 34.8577 32.2201 34.5161L31.8406 34.4402ZM31.3472 33.3397C31.6129 33.3397 31.8027 33.4915 31.8027 33.833V33.871H30.8918C30.8918 33.5674 31.0436 33.3397 31.3472 33.3397ZM37.3055 34.4402C37.1917 34.63 37.0398 34.7059 36.8501 34.7059C36.5465 34.7059 36.3188 34.4782 36.3188 34.1746H37.723V33.9469C37.723 33.3397 37.3814 32.9981 36.8121 32.9981C36.2049 32.9981 35.8634 33.4156 35.8634 34.0607C35.8634 34.7059 36.2429 35.0854 36.8121 35.0854C37.2676 35.0854 37.5332 34.8577 37.685 34.5161L37.3055 34.4402ZM36.8121 33.3397C37.0778 33.3397 37.2676 33.4915 37.2676 33.833V33.871H36.3567C36.3188 33.5674 36.5085 33.3397 36.8121 33.3397ZM27.4383 30.4934C27.3245 30.6831 27.1727 30.759 26.9829 30.759C26.6793 30.759 26.4516 30.5313 26.4516 30.2277H27.8558V30C27.8558 29.3928 27.5142 29.0512 26.945 29.0512C26.3378 29.0512 25.9962 29.4687 25.9962 30.1138C25.9962 30.759 26.3757 31.1385 26.945 31.1385C27.4004 31.1385 27.666 30.9108 27.8178 30.5693L27.4383 30.4934ZM26.945 29.3928C27.2106 29.3928 27.4004 29.5446 27.4004 29.8861V29.9241H26.4896C26.4896 29.5825 26.6414 29.3928 26.945 29.3928ZM0 9.12713V9.35484C0 9.58254 0.0759013 9.81024 0.189753 10C0.303605 10.1898 0.531309 10.3416 0.759013 10.4554C1.02467 10.5693 1.32827 10.6452 1.63188 10.6452C1.66983 10.6452 1.70778 10.6452 1.74573 10.6452C2.20114 10.6452 2.58065 10.5313 2.8463 10.3416C3.11195 10.1518 3.26376 9.84819 3.26376 9.54459V9.12713C3.26376 8.86148 3.22581 8.67172 3.11195 8.51992C3.03605 8.33017 2.8463 8.17837 2.54269 8.02656C2.20114 7.87476 2.01139 7.79886 1.66983 7.60911C1.48008 7.5332 1.36622 7.3814 1.36622 7.2296V7.03985C1.36622 6.85009 1.48008 6.73624 1.66983 6.73624C1.78368 6.73624 1.85958 6.77419 1.89753 6.81214C1.97343 6.88804 2.01139 6.96394 2.01139 7.11575V7.4573H3.33966V7.11575C3.33966 6.81214 3.26376 6.58444 3.11195 6.39468C2.9981 6.20493 2.7704 6.09108 2.54269 6.01518C2.27704 5.93928 2.01139 5.90133 1.66983 5.90133C1.21442 5.90133 0.834915 6.01518 0.531309 6.20493C0.227704 6.43263 0.0379507 6.73624 0.0379507 7.11575V7.34345C0.0379507 7.60911 0.0759013 7.79886 0.189753 7.95066C0.303605 8.14041 0.493359 8.29222 0.796964 8.40607C1.13852 8.59582 1.32827 8.67172 1.66983 8.82353C1.93548 8.97533 2.01139 9.08918 2.01139 9.27893V9.46869C2.01139 9.54459 2.01139 9.62049 1.93548 9.69639C1.89753 9.73434 1.78368 9.77229 1.70778 9.77229C1.48008 9.77229 1.36622 9.62049 1.36622 9.35484V9.12713H0ZM3.52941 6.92599L4.70588 6.88804V10.6452L6.22391 10.6831V6.85009L7.40038 6.81214V5.82542L3.52941 5.97723V6.92599ZM10.1708 9.46869C10.1708 9.62049 10.1328 9.73434 10.0569 9.77229C9.98102 9.84819 9.90512 9.88615 9.75332 9.88615C9.48767 9.88615 9.33586 9.73434 9.33586 9.43074V5.74952L7.81784 5.78747V9.46869C7.81784 9.77229 7.89374 10 8.04554 10.2277C8.19734 10.4554 8.42505 10.6072 8.6907 10.7211C8.99431 10.8349 9.33586 10.9108 9.75332 10.9108C9.79127 10.9108 9.86717 10.9108 9.90512 10.9108C10.2467 10.9108 10.5503 10.8729 10.8159 10.759C11.1195 10.6452 11.3093 10.4934 11.4611 10.2657C11.6129 10.0379 11.6888 9.77229 11.6888 9.46869V5.67362L10.1708 5.71157V9.46869ZM15.37 5.74952C15.0664 5.63567 14.649 5.55977 14.2315 5.59772L12.4099 5.67362V10.9108L14.2315 10.9867C14.2695 10.9867 14.3454 10.9867 14.3833 10.9867C14.7628 10.9867 15.1044 10.9108 15.408 10.797C15.7116 10.6831 15.9772 10.4554 16.129 10.1898C16.2808 9.9241 16.3567 9.58254 16.3567 9.16508V7.34345C16.3567 6.96394 16.2808 6.62239 16.0911 6.35673C15.9393 6.09108 15.7116 5.90133 15.37 5.74952ZM14.8008 9.24098C14.8008 9.50664 14.7628 9.69639 14.649 9.84819C14.5351 10 14.3833 10.0759 14.1935 10.0759H13.9279V6.54649H14.1935C14.4213 6.54649 14.5731 6.58444 14.649 6.73624C14.7628 6.81214 14.8008 7.00189 14.8008 7.26755V9.24098ZM18.5199 8.70967H19.962V7.68501H18.5199V6.47059L20.0759 6.43263V5.37002L17.0019 5.48387V11.0626L20.1518 11.1765V10.1138L18.5199 10.0759V8.70967ZM23.3397 7.3055C23.3397 7.49525 23.3397 7.72296 23.3397 7.91271C23.3397 8.06451 23.3397 8.25427 23.3397 8.40607C23.3017 8.29222 23.2638 8.17837 23.2258 8.06451C23.1879 7.95066 23.1499 7.83681 23.112 7.68501C22.9981 7.3814 22.9222 7.11575 22.8083 6.85009C22.7324 6.62239 22.6565 6.39468 22.5427 6.12903L22.5047 6.05313C22.4288 5.82542 22.3529 5.55977 22.2391 5.29411V5.25616L20.6452 5.29411V11.1385L21.9734 11.1765V8.74763C21.9734 8.55787 21.9734 8.33017 21.9734 8.17837V7.98861C21.9734 7.91271 21.9734 7.83681 21.9734 7.76091C22.0493 7.98861 22.1252 8.25427 22.2011 8.51992C22.315 8.86148 22.4288 9.16508 22.5427 9.46869C22.6565 9.73434 22.7324 10 22.8463 10.3036C22.9602 10.5693 23.0361 10.8729 23.1879 11.2524L24.63 11.2903V5.21821L23.3017 5.25616L23.3397 7.3055ZM25.1613 6.47059L26.3378 6.43263V11.4042L27.8558 11.4421V6.39468L29.0323 6.35673V5.06641L25.1613 5.21821V6.47059ZM33.1309 7.00189V6.69829V6.58444C33.1309 6.16698 33.055 5.78747 32.9032 5.52182C32.7514 5.25616 32.5237 5.10436 32.2201 4.99051C31.9545 4.87666 31.6129 4.83871 31.2334 4.83871C30.8918 4.83871 30.5882 4.91461 30.3226 5.02846C30.019 5.14231 29.7913 5.33207 29.6395 5.59772C29.4497 5.86337 29.3738 6.16698 29.3738 6.54649V6.88804C29.3738 7.26755 29.4497 7.5332 29.5636 7.79886C29.7154 8.06451 29.9051 8.25427 30.2467 8.48197C30.4364 8.59582 30.5882 8.70967 30.74 8.78558C30.8918 8.86148 31.0436 8.97533 31.2334 9.08918C31.575 9.31689 31.6129 9.46869 31.6129 9.77229V10.0759C31.6129 10.2277 31.575 10.3795 31.4991 10.4554C31.4232 10.5313 31.3472 10.5313 31.2334 10.5313C31.0057 10.5313 30.8539 10.3416 30.8539 9.96205V9.54459L29.3359 9.50664V9.88615C29.3359 10.2277 29.4118 10.4934 29.5636 10.759C29.7154 11.0247 29.9431 11.2524 30.2087 11.4042C30.5123 11.556 30.8539 11.6698 31.2334 11.6698C31.2713 11.6698 31.3093 11.6698 31.3472 11.6698C31.6888 11.6698 32.0304 11.5939 32.296 11.4801C32.5617 11.3662 32.7894 11.1765 32.9412 10.9108C33.093 10.6831 33.1689 10.3795 33.1689 10.0759V9.46869C33.1689 9.08918 33.093 8.82353 32.9791 8.59582C32.8273 8.33017 32.5996 8.10246 32.2581 7.91271C32.0683 7.79886 31.9165 7.68501 31.7647 7.60911C31.6129 7.5332 31.4611 7.41935 31.2713 7.3055C31.0436 7.1537 30.8918 6.92599 30.8918 6.69829V6.43263C30.8918 6.20493 31.0057 6.01518 31.2713 6.01518C31.3852 6.01518 31.4611 6.05313 31.537 6.09108C31.6129 6.16698 31.6888 6.31878 31.6888 6.54649V7.00189H33.1309ZM35.1423 4.83871L33.6243 4.87666L33.9279 6.85009L34.8387 6.81214L35.1423 4.83871ZM31.6129 28.7476H32.1063V28.4061H31.6129V28.7476ZM31.6129 31.1006H32.0683V29.1271H31.6129V31.1006Z" fill="#E0E4DB"/>
</svg>
