<svg width="40" height="40" viewBox="0 0 40 40" fill="none" xmlns="http://www.w3.org/2000/svg">
<g clip-path="url(#clip0_272_54)">
<path d="M34.157 5.81673C32.3141 3.96715 30.1204 2.5005 27.7033 1.50197C25.2862 0.503443 22.6939 -0.00707312 20.077 7.40178e-05C9.10765 7.40178e-05 0.170768 8.89673 0.160723 19.8167C0.160723 23.3134 1.07819 26.7167 2.816 29.7267L0 40L10.5575 37.2467C13.4786 38.8295 16.7512 39.6591 20.077 39.66H20.0871C31.0531 39.66 39.9899 30.7634 40 19.8334C40.003 17.2285 39.488 14.6489 38.4846 12.2432C37.4812 9.83745 36.0126 7.65332 34.157 5.81673ZM20.0737 36.3033C17.0936 36.3033 14.1805 35.5033 11.6424 34.0033L11.0397 33.6433L4.77817 35.2767L6.45237 29.1967L6.05726 28.57C4.39545 25.9461 3.51858 22.9053 3.52921 19.8034C3.54073 15.4383 5.2893 11.2556 8.39204 8.17119C11.4948 5.08678 15.6989 3.35201 20.0837 3.34674C24.5036 3.34674 28.6556 5.06673 31.7864 8.17339C33.3253 9.70193 34.5452 11.5186 35.3756 13.5186C36.206 15.5187 36.6306 17.6626 36.6248 19.8267C36.6186 24.1947 34.8728 28.382 31.7702 31.4706C28.6676 34.5593 24.4614 36.2972 20.0737 36.3033ZM29.1512 23.97C28.0297 23.4077 26.8966 22.8687 25.7525 22.3534C25.2938 22.19 24.9623 22.1067 24.6342 22.6C24.2993 23.0934 23.3484 24.2167 23.0604 24.54C22.7758 24.8734 22.4778 24.9067 21.9822 24.6634C21.4867 24.42 19.8828 23.8934 17.9809 22.2C16.8935 21.1984 15.9604 20.0427 15.2118 18.77C14.9272 18.2767 15.185 18.01 15.4328 17.7634C15.6538 17.5434 15.9283 17.1834 16.1795 16.8967C16.4273 16.6134 16.5143 16.4034 16.675 16.07C16.8358 15.7367 16.7587 15.4534 16.6349 15.2067C16.511 14.96 15.5198 12.5167 15.0979 11.5301C14.6961 10.5601 14.2876 10.6934 13.9829 10.6834C13.695 10.6634 13.3601 10.6634 13.032 10.6634C12.6971 10.6634 12.1614 10.7867 11.7027 11.2801C11.2473 11.7767 9.96484 12.9734 9.96484 15.4134C9.96484 17.8567 11.7529 20.2067 12.0007 20.5367C12.2484 20.87 15.5031 25.87 20.4956 28.0167C21.6809 28.53 22.6051 28.8334 23.3317 29.0634C24.5237 29.4434 25.6019 29.3867 26.4624 29.2634C27.4167 29.12 29.4023 28.0634 29.8242 26.9067C30.2327 25.7467 30.2327 24.7567 30.1088 24.55C29.9849 24.34 29.6467 24.2167 29.1512 23.97Z" fill="#E0E4DB"/>
</g>
<defs>
<clipPath id="clip0_272_54">
<rect width="40" height="40" fill="white"/>
</clipPath>
</defs>
</svg>
