<svg width="40" height="40" viewBox="0 0 40 40" fill="none" xmlns="http://www.w3.org/2000/svg">
<path d="M25.6309 5.08475C25.2401 5.76753 24.8891 6.47385 24.57 7.19588C21.5387 6.74854 18.4515 6.74854 15.4122 7.19588C15.1011 6.47385 14.7421 5.76753 14.3512 5.08475C11.5033 5.56348 8.7273 6.40322 6.09483 7.58828C0.877747 15.1931 -0.534216 22.6016 0.167777 29.9082C3.22304 32.1292 6.64526 33.8244 10.2908 34.9074C11.1125 33.8244 11.8384 32.6707 12.4606 31.47C11.28 31.0383 10.1392 30.4968 9.04636 29.8689C9.33358 29.6649 9.61275 29.453 9.88398 29.2489C16.2897 32.2155 23.7084 32.2155 30.1221 29.2489C30.3934 29.4687 30.6725 29.6806 30.9597 29.8689C29.8668 30.5046 28.7261 31.0383 27.5375 31.4778C28.1597 32.6786 28.8857 33.8322 29.7073 34.9153C33.3529 33.8322 36.7751 32.1449 39.8303 29.9239C40.66 21.448 38.4104 14.1022 33.8874 7.59613C31.2628 6.41107 28.4868 5.57133 25.6389 5.10044L25.6309 5.08475ZM13.3541 25.4113C11.3837 25.4113 9.74837 23.6533 9.74837 21.4794C9.74837 19.3054 11.3199 17.5397 13.3461 17.5397C15.3723 17.5397 16.9837 19.3133 16.9518 21.4794C16.9199 23.6454 15.3644 25.4113 13.3541 25.4113ZM26.6441 25.4113C24.6658 25.4113 23.0463 23.6533 23.0463 21.4794C23.0463 19.3054 24.6179 17.5397 26.6441 17.5397C28.6703 17.5397 30.2737 19.3133 30.2418 21.4794C30.2099 23.6454 28.6543 25.4113 26.6441 25.4113Z" fill="#E0E4DB"/>
</svg>
