<svg width="40" height="40" viewBox="0 0 40 40" fill="none" xmlns="http://www.w3.org/2000/svg">
<g clip-path="url(#clip0_17_72)">
<path d="M40 20.1215C39.9998 16.296 38.9043 12.5507 36.8434 9.32901C34.7825 6.10729 31.8424 3.54409 28.3713 1.94288C24.9001 0.34167 21.0432 -0.230497 17.2573 0.29412C13.4713 0.818738 9.91479 2.41817 7.00882 4.90305C4.10285 7.38794 1.96911 10.6542 0.860228 14.3152C-0.248655 17.9761 -0.286245 21.8784 0.751908 25.5601C1.79006 29.2418 3.86048 32.5486 6.71804 35.0891C9.5756 37.6296 13.1006 39.2974 16.8758 39.895V25.9078H11.7958V20.1215H16.8758V15.7113C16.8758 10.6963 19.8611 7.92329 24.4295 7.92329C25.9284 7.94436 27.4253 8.075 28.9074 8.31311V13.2396H26.3832C25.9532 13.1825 25.5159 13.223 25.1037 13.358C24.6915 13.4931 24.3149 13.7193 24.0019 14.0198C23.6889 14.3203 23.4475 14.6875 23.2956 15.0941C23.1436 15.5007 23.0851 15.9364 23.1242 16.3687V20.1215H28.6674L27.7789 25.9078H23.1158V39.895C27.8219 39.1521 32.1085 36.7521 35.2039 33.1271C38.2992 29.502 40 24.8901 40 20.1215Z" fill="#E0E4DB"/>
</g>
<defs>
<clipPath id="clip0_17_72">
<rect width="40" height="40" fill="white"/>
</clipPath>
</defs>
</svg>
