<svg width="40" height="40" viewBox="0 0 40 40" fill="none" xmlns="http://www.w3.org/2000/svg">
<g clip-path="url(#clip0_17_71)">
<path fill-rule="evenodd" clip-rule="evenodd" d="M11.7686 0.111123C13.9043 2.6491e-08 14.594 0 20.0222 0C25.4505 0 26.1402 2.6491e-08 28.2981 0.111123C29.9558 0.146934 31.5956 0.462529 33.1479 1.04456C34.4729 1.56832 35.6737 2.36273 36.6736 3.3769C37.6735 4.39108 38.4503 5.60267 38.9544 6.9341C39.5373 8.48539 39.8532 10.1233 39.8888 11.7791C40 13.9127 40 14.6016 40 20.0245C40 23.327 39.9577 24.8405 39.9266 26.0229C39.9043 26.7785 39.8888 27.4008 39.8888 28.2676C39.853 29.9237 39.5371 31.5618 38.9544 33.1126C38.4399 34.4397 37.6538 35.6449 36.6463 36.651C35.6388 37.6571 34.4321 38.442 33.1034 38.9554C31.5511 39.5375 29.9113 39.8531 28.2536 39.8889C26.1179 40 25.4283 40 20 40C16.6897 40 15.1746 39.9578 13.9933 39.9267C13.2369 39.9044 12.614 39.8889 11.7464 39.8889C10.0887 39.8531 8.44892 39.5375 6.89655 38.9554C5.56555 38.4393 4.35738 37.6507 3.34972 36.6402C2.34206 35.6297 1.5572 34.4197 1.04561 33.0881C0.462909 31.5373 0.146996 29.8992 0.111235 28.2431C0 26.1118 0 25.4228 0 20C0 14.5772 0 13.8882 0.111235 11.7324C0.147203 10.0771 0.463114 8.43975 1.04561 6.88965C1.56226 5.55998 2.3517 4.35302 3.3632 3.34637C4.37469 2.33971 5.58584 1.55564 6.9188 1.04456C8.47117 0.462488 10.1109 0.146892 11.7686 0.111123ZM28.1201 3.71375C26.0067 3.60262 25.3615 3.60262 20.0222 3.60262V3.64707C16.7297 3.64707 15.2236 3.69152 14.0623 3.72264C13.3348 3.74264 12.7408 3.7582 11.9266 3.7582C10.6579 3.77449 9.40136 4.00751 8.21135 4.44716C7.36007 4.78218 6.58683 5.28848 5.93967 5.93461C5.29251 6.58074 4.78524 7.3529 4.44939 8.20313C4.00926 9.39195 3.77601 10.6472 3.75973 11.9147C3.6485 14.026 3.6485 14.6483 3.6485 20.0044C3.6485 23.2937 3.68854 24.7961 3.72191 25.9562C3.74416 26.6852 3.75973 27.2786 3.75973 28.0898C3.77605 29.3572 4.0093 30.6125 4.44939 31.8013C4.785 32.6513 5.29192 33.4234 5.93868 34.0695C6.58545 34.7156 7.35825 35.222 8.20912 35.5573C9.39914 35.9969 10.6557 36.23 11.9244 36.2463C14.0378 36.3574 14.6607 36.3574 20.0222 36.3574C23.3148 36.3574 24.8209 36.3174 25.9822 36.284C26.7119 36.2618 27.3037 36.2463 28.1179 36.2463C29.3866 36.23 30.6431 35.9969 31.8332 35.5573C32.6844 35.2223 33.4577 34.716 34.1048 34.0698C34.752 33.4237 35.2593 32.6515 35.5951 31.8013C36.0356 30.6145 36.2692 29.3588 36.2848 28.0898C36.396 25.9807 36.396 25.3584 36.396 20.0022C36.396 16.713 36.356 15.2106 36.3226 14.0505C36.3026 13.3215 36.287 12.7281 36.287 11.9147C36.2708 10.6472 36.0375 9.39194 35.5973 8.20313C35.2617 7.35312 34.7548 6.58108 34.108 5.93497C33.4613 5.28885 32.6885 4.78243 31.8376 4.44716C30.6503 3.99234 29.3914 3.74427 28.1201 3.71375Z" fill="#E0E4DB"/>
<path fill-rule="evenodd" clip-rule="evenodd" d="M9.73108 20.9263C9.73108 18.3468 10.8127 15.8728 12.7381 14.0488C14.6635 12.2248 17.2749 11.2 19.9977 11.2C22.7206 11.2 25.332 12.2248 27.2574 14.0488C29.1827 15.8728 30.2644 18.3468 30.2644 20.9263C30.2644 23.5059 29.1827 25.9798 27.2574 27.8039C25.332 29.6279 22.7206 30.6527 19.9977 30.6527C17.2749 30.6527 14.6635 29.6279 12.7381 27.8039C10.8127 25.9798 9.73108 23.5059 9.73108 20.9263ZM13.3333 20.9263C13.3333 22.6014 14.0357 24.2078 15.2859 25.3923C16.5362 26.5767 18.2319 27.2421 20 27.2421C21.7681 27.2421 23.4638 26.5767 24.714 25.3923C25.9643 24.2078 26.6666 22.6014 26.6666 20.9263C26.6666 19.2513 25.9643 17.6448 24.714 16.4604C23.4638 15.276 21.7681 14.6106 20 14.6106C18.2319 14.6106 16.5362 15.276 15.2859 16.4604C14.0357 17.6448 13.3333 19.2513 13.3333 20.9263ZM30.6644 13.1011C30.9796 13.1011 31.2917 13.0423 31.5829 12.928C31.874 12.8137 32.1386 12.6463 32.3615 12.4351C32.5843 12.224 32.7611 11.9734 32.8817 11.6975C33.0023 11.4216 33.0644 11.126 33.0644 10.8274C33.0644 10.5288 33.0023 10.2331 32.8817 9.95729C32.7611 9.68144 32.5843 9.43079 32.3615 9.21966C32.1386 9.00853 31.874 8.84105 31.5829 8.72678C31.2917 8.61252 30.9796 8.55371 30.6644 8.55371C30.0279 8.55371 29.4174 8.79326 28.9674 9.21966C28.5173 9.64606 28.2644 10.2244 28.2644 10.8274C28.2644 11.4304 28.5173 12.0087 28.9674 12.4351C29.4174 12.8615 30.0279 13.1011 30.6644 13.1011Z" fill="#E0E4DB"/>
</g>
<defs>
<clipPath id="clip0_17_71">
<rect width="40" height="40" fill="white"/>
</clipPath>
</defs>
</svg>
