<svg width="40" height="40" viewBox="0 0 40 40" fill="none" xmlns="http://www.w3.org/2000/svg">
<g clip-path="url(#clip0_17_73)">
<path d="M38.0119 0.124559H1.74023C1.51019 0.118781 1.28138 0.15983 1.0677 0.245213C0.854021 0.330596 0.659928 0.458529 0.497217 0.62124C0.334506 0.783952 0.206572 0.978044 0.12119 1.19173C0.035807 1.40541 -0.00524247 1.63422 0.000535245 1.86425V38.3861C0.000535245 39.1297 0.746452 39.8756 1.74023 39.8756H38.2621C38.492 39.8811 38.7205 39.8398 38.9339 39.7543C39.1473 39.6687 39.3411 39.5408 39.5036 39.3781C39.666 39.2154 39.7938 39.0214 39.879 38.8079C39.9642 38.5944 40.0052 38.3658 39.9995 38.1359V1.86425C39.7516 0.870476 39.0057 0.124559 38.0119 0.124559ZM11.678 33.913H5.9632V15.0312H11.9259V33.913H11.678ZM8.94453 12.5479C6.95697 12.5479 5.46748 10.8082 5.46748 9.06855C5.46748 7.081 6.95697 5.58916 8.94453 5.58916C10.9321 5.58916 12.4239 7.081 12.4239 9.06855C12.1737 10.8082 10.6842 12.5456 8.94453 12.5456V12.5479ZM33.7889 33.913H27.8263V24.7211C27.8263 22.4834 27.8263 19.7522 24.845 19.7522C21.8636 19.7522 21.3679 22.2355 21.3679 24.7211V34.1608H15.4052V15.0312H21.1154V17.5168C21.8636 16.025 23.8512 14.5332 26.587 14.5332C32.5496 14.5332 33.5434 18.5083 33.5434 23.4795V33.913H33.7889Z" fill="#E0E4DB"/>
</g>
<defs>
<clipPath id="clip0_17_73">
<rect width="40" height="40" fill="white"/>
</clipPath>
</defs>
</svg>
