<svg width="533" height="533" viewBox="0 0 533 533" fill="none" xmlns="http://www.w3.org/2000/svg">
<path d="M509.8 331.043L503.23 324.307C477.711 298.123 435.232 297.24 408.583 322.336L408.522 322.274L397.189 332.46C388.278 340.49 374.42 339.894 366.249 331.125L362.369 326.936C354.177 318.146 354.772 304.531 363.703 296.501L374.851 286.5L374.79 286.438C387.581 274.384 394.807 258.222 395.197 240.91C395.546 223.598 389.038 207.169 376.802 194.642C351.282 168.458 308.804 167.554 282.155 192.67L180.281 288.636C167.49 300.67 160.263 316.832 159.873 334.164C159.524 351.456 166.033 367.885 178.249 380.432C203.645 406.452 245.733 407.499 272.444 382.876L272.937 382.404L283.818 372.506C292.502 364.558 306.299 365.215 314.573 374.005L318.535 378.194C326.83 386.963 326.481 400.517 317.796 408.464L306.422 418.815L306.361 418.753C293.837 430.726 286.754 446.723 286.405 463.871C286.015 481.162 292.564 497.591 304.78 510.139L304.718 510.201L315.312 521.085C317.427 523.262 319.172 525.603 320.547 528.047C371.258 518.148 416.077 493.731 455.024 454.773C489.352 420.437 512.285 381.357 523.926 337.594C518.752 337.204 513.681 335.027 509.8 331.043ZM325.495 275.575L324.079 276.91C321.225 279.6 316.482 279.292 313.505 276.232L311.678 274.343L311.575 274.445C300.119 262.699 281.046 262.308 269.077 273.562C263.328 278.984 260.064 286.274 259.899 294.078C259.735 301.861 262.671 309.275 268.173 314.922L268.03 315.066L270.021 317.099C273.039 320.2 273.142 324.882 270.288 327.572L268.871 328.907C266.017 331.597 261.254 331.269 258.236 328.168L256.491 326.361L256.409 326.422C247.807 317.592 243.208 305.989 243.454 293.749C243.721 281.51 248.813 270.071 257.805 261.61C266.757 253.17 278.316 248.98 289.854 248.98C302.07 248.98 314.265 253.663 323.34 262.986L323.237 263.089L325.27 265.163C328.226 268.223 328.329 272.884 325.495 275.575Z" fill="url(#paint0_linear_196_59)"/>
<path d="M78.325 454.794C128.605 505.313 189.048 531.333 259.55 532.996C244.46 512.789 236.535 488.392 237.09 462.865C237.192 458.286 237.562 453.768 238.178 449.311C203.932 452.679 168.537 441.117 142.956 414.872C121.419 392.796 109.922 363.757 110.579 333.097C111.215 302.436 123.965 273.891 146.467 252.718L248.34 156.753C270.74 135.662 299.606 125.168 328.452 125.168C358.94 125.168 389.367 136.894 412.094 160.203C433.631 182.279 445.128 211.317 444.471 241.957C444.369 246.496 443.999 250.993 443.404 255.429C447.243 255.039 451.082 254.854 454.901 254.854C482.72 254.854 510.519 264.629 532.425 284.056C532.774 278.224 533 272.351 533 266.395C533 193.04 507.008 130.22 455.024 77.9964C402.814 25.9988 340.031 6.41472e-06 266.675 0C193.092 -6.43446e-06 130.309 25.9987 78.3251 77.9963C26.1152 130.22 6.41303e-06 193.02 0 266.395C-6.43277e-06 339.997 26.1152 402.797 78.325 454.794Z" fill="url(#paint1_linear_196_59)"/>
<defs>
<linearGradient id="paint0_linear_196_59" x1="0.071861" y1="0.000189552" x2="533.068" y2="532.857" gradientUnits="userSpaceOnUse">
<stop stop-color="#5EFE7F"/>
<stop offset="1" stop-color="#6EFFF5"/>
</linearGradient>
<linearGradient id="paint1_linear_196_59" x1="0.071861" y1="0.000189552" x2="533.068" y2="532.857" gradientUnits="userSpaceOnUse">
<stop stop-color="#5EFE7F"/>
<stop offset="1" stop-color="#6EFFF5"/>
</linearGradient>
</defs>
</svg>
