<svg width="40" height="40" viewBox="0 0 40 40" fill="none" xmlns="http://www.w3.org/2000/svg">
<path fill-rule="evenodd" clip-rule="evenodd" d="M38 8.72607C38.8511 9.81159 39.4022 11.1005 39.6 12.4624C39.8489 14.4875 39.9822 16.5237 40 18.5642V21.4162C39.9822 23.4612 39.8489 25.5062 39.6 27.5402C39.4021 28.9021 38.8506 30.1892 38 31.2743C36.9166 32.2885 35.4876 32.8572 34 32.8661C28.4 33.264 20 33.264 20 33.264C20 33.264 9.6 33.264 6.44445 32.8882C4.81959 32.8797 3.2483 32.3091 2 31.2743C1.14556 30.1822 0.593881 28.8863 0.4 27.5159C0.151157 25.4911 0.0176107 23.4538 0 21.414L0 18.562C0.0177778 16.517 0.151111 14.472 0.4 12.4403C0.597612 11.0776 1.1491 9.78975 2 8.70396C3.08339 7.68978 4.51244 7.12109 6 7.11217C11.6 6.73633 20 6.73633 20 6.73633C20 6.73633 28.4 6.73633 34 7.13428C35.4876 7.1432 36.9166 7.71189 38 8.72607ZM28.8889 20.0013L15.5556 13.3688V26.6338L28.8889 20.0013Z" fill="#E0E4DB"/>
</svg>
